<svg xmlns="http://www.w3.org/2000/svg" viewBox="0 0 512 512" role="img" aria-label="What's the Vibe Tonight app icon">
  <rect width="512" height="512" rx="92" fill="#141211"/>
  <path d="M112 355c48-14 69-55 75-122 7-76 39-120 97-132-18 29-25 62-20 97 8 55 47 85 95 100-36 56-91 90-157 90-34 0-65-11-90-33Z" fill="#d6b05e"/>
  <circle cx="343" cy="155" r="35" fill="#5ab7ad"/>
  <path d="M139 381c34 28 75 42 122 42 59 0 109-20 150-60" fill="none" stroke="#f6f0e8" stroke-width="22" stroke-linecap="round"/>
  <text x="256" y="298" text-anchor="middle" font-family="Arial, Helvetica, sans-serif" font-size="112" font-weight="700" fill="#141211">夜</text>
</svg>
